<?xml version="1.0" encoding="UTF-8" standalone="no"?>
<!-- Uploaded to: SVG Repo, www.svgrepo.com, Generator: SVG Repo Mixer Tools -->

<svg
   fill="#000000"
   height="800px"
   width="800px"
   version="1.1"
   id="Capa_1"
   viewBox="0 0 486.1 486.1"
   xml:space="preserve"
   sodipodi:docname="euler.svg"
   inkscape:version="1.2.2 (b0a84865, 2022-12-01)"
   xmlns:inkscape="http://www.inkscape.org/namespaces/inkscape"
   xmlns:sodipodi="http://sodipodi.sourceforge.net/DTD/sodipodi-0.dtd"
   xmlns="http://www.w3.org/2000/svg"
   xmlns:svg="http://www.w3.org/2000/svg"><defs
   id="defs78" /><sodipodi:namedview
   id="namedview76"
   pagecolor="#ffffff"
   bordercolor="#000000"
   borderopacity="0.25"
   inkscape:showpageshadow="2"
   inkscape:pageopacity="0.0"
   inkscape:pagecheckerboard="0"
   inkscape:deskcolor="#d1d1d1"
   showgrid="false"
   inkscape:zoom="0.295"
   inkscape:cx="408.47458"
   inkscape:cy="408.47458"
   inkscape:window-width="1309"
   inkscape:window-height="743"
   inkscape:window-x="215"
   inkscape:window-y="128"
   inkscape:window-maximized="0"
   inkscape:current-layer="Capa_1" />
<g
   id="g73">
	<g
   id="g71">
		<path
   d="M445.5,0H40.7C18.3,0,0,18.3,0,40.7v404.7c0,22.4,18.3,40.7,40.7,40.7h404.7c22.4,0,40.7-18.3,40.7-40.7V40.7    C486.2,18.3,467.9,0,445.5,0z M462.2,445.5c0,9.2-7.5,16.7-16.7,16.7H40.7c-9.2,0-16.7-7.5-16.7-16.7V40.7    C24,31.5,31.5,24,40.7,24h404.7c9.2,0,16.7,7.5,16.7,16.7v404.8H462.2z"
   id="path59" />
		<path
   d="M193,300.6c-4.7-4.7-12.3-4.7-17,0l-36.1,36.1l-36.1-36.1c-4.7-4.7-12.3-4.7-17,0s-4.7,12.3,0,17l36.1,36.1l-36.1,36.1    c-4.7,4.7-4.7,12.3,0,17c2.3,2.3,5.4,3.5,8.5,3.5c3.1,0,6.1-1.2,8.5-3.5l36.1-36.1l36.1,36.1c2.3,2.3,5.4,3.5,8.5,3.5    s6.1-1.2,8.5-3.5c4.7-4.7,4.7-12.3,0-17l-36.1-36.1l36.1-36.1C197.7,312.9,197.7,305.3,193,300.6z"
   id="path61" />
		<path
   d="M203,131.7h-51v-51c0-6.6-5.4-12-12-12s-12,5.4-12,12v51H77c-6.6,0-12,5.4-12,12s5.4,12,12,12h51v51c0,6.6,5.4,12,12,12    s12-5.4,12-12v-51h51c6.6,0,12-5.4,12-12S209.6,131.7,203,131.7z"
   id="path63" />
		<path
   d="M403.9,371.1H296.4c-6.6,0-12,5.4-12,12s5.4,12,12,12h107.4c6.6,0,12-5.4,12-12S410.5,371.1,403.9,371.1z"
   id="path65" />
		<path
   d="M403.9,312.2H296.4c-6.6,0-12,5.4-12,12s5.4,12,12,12h107.4c6.6,0,12-5.4,12-12S410.5,312.2,403.9,312.2z"
   id="path67" />
		<path
   d="M394.6,155.7c6.6,0,12-5.4,12-12s-5.4-12-12-12H287.1c-6.6,0-12,5.4-12,12s5.4,12,12,12H394.6z"
   id="path69" />
	</g>
</g>
<path
   style="fill:#ffffff;stroke-width:3.38983"
   d="M 57.627119,796.87349 C 33.648407,791.93976 19.907741,781.53508 8.0358953,759.32203 1.9613098,747.95607 1.6949153,733.074 1.6949153,405.08475 1.6949153,216.77966 2.9333363,56.857031 4.446962,49.701119 8.6269871,29.939378 31.678681,8.5444637 53.932997,3.7717678 c 24.684542,-5.2938868 667.449473,-5.2938868 692.134023,0 22.2543,4.7726959 45.306,26.1676102 49.48603,45.9293512 1.51363,7.155912 2.75203,167.078541 2.75203,355.383631 v 342.37288 l -7.2664,13.55932 c -8.31041,15.50746 -14.95044,21.98637 -31.71665,30.94715 -11.34495,6.06336 -26.70593,6.36309 -350.84745,6.84576 -186.44068,0.27763 -344.322038,-0.59372 -350.847461,-1.93637 z m 695.176001,-44.07037 9.90874,-9.90871 V 400 57.105607 l -9.90874,-9.908736 -9.90871,-9.908735 H 400 57.105607 l -9.908736,9.908735 -9.908735,9.908736 V 400 742.89441 l 9.908735,9.90871 9.908736,9.90874 H 400 742.89441 Z"
   id="path272"
   transform="scale(0.607625)" /><path
   style="fill:#ffffff;stroke-width:3.38983"
   d="m 145.76271,667.79661 c -3.72881,-3.72881 -6.77966,-9.42186 -6.77966,-12.65122 0,-3.22935 14.81043,-20.73777 32.91206,-38.90758 l 32.91206,-33.03602 -32.91206,-33.49894 c -33.53082,-34.12874 -37.91237,-42.52336 -27.58518,-52.85055 10.60652,-10.60652 19.13799,-6.1613 53.08705,27.66037 l 33.11149,32.98725 33.1115,-32.98725 c 20.5855,-20.50826 35.77512,-32.98725 40.15258,-32.98725 8.30465,0 18.26135,9.94889 18.26135,18.24703 0,3.21683 -14.74933,21.04868 -32.77628,39.62632 l -32.77628,33.77754 32.77628,33.36074 c 18.02695,18.3484 32.77628,35.86255 32.77628,38.92032 0,7.17693 -11.94197,19.1189 -19.11891,19.1189 -3.05777,0 -20.63251,-14.80886 -39.05497,-32.90858 l -33.4954,-32.90858 -29.58909,29.14459 c -26.09588,25.70385 -39.94875,36.67257 -46.31539,36.67257 -1.05477,0 -4.96861,-3.05085 -8.69743,-6.77966 z"
   id="path274"
   transform="scale(0.607625)" /><path
   style="fill:#ffffff;stroke-width:3.38983"
   d="m 221.09324,354.04507 c -7.17281,-5.02404 -7.53392,-7.54241 -7.53392,-52.54237 v -47.26541 h -46.93224 c -42.30552,0 -47.52492,-0.6549 -52.94414,-6.64307 -8.04229,-8.88662 -4.43873,-23.03701 6.9714,-27.37514 4.73031,-1.79846 27.56906,-3.26993 50.75278,-3.26993 h 42.1522 v -45.52058 c 0,-48.1623 2.41743,-56.17433 16.94915,-56.17433 14.53173,0 16.94916,8.01203 16.94916,56.17433 v 45.52058 h 42.1522 c 23.18372,0 45.93454,1.43804 50.55739,3.19565 11.15896,4.24263 14.36947,15.28964 7.49337,25.78389 -5.34813,8.16228 -6.27838,8.3086 -52.82348,8.3086 h -47.37948 v 47.26541 c 0,44.99996 -0.36111,47.51833 -7.53392,52.54237 -4.14366,2.90233 -8.38051,5.27696 -9.41524,5.27696 -1.03472,0 -5.27157,-2.37463 -9.41523,-5.27696 z"
   id="path276"
   transform="scale(0.607625)" /><path
   style="fill:#ffffff;stroke-width:3.38983"
   d="m 459.44565,247.59422 c -8.04229,-8.88662 -4.43872,-23.03701 6.9714,-27.37513 11.2081,-4.26132 177.9917,-4.26132 189.1998,0 11.41012,4.33812 15.01369,18.48851 6.9714,27.37513 -5.69985,6.29826 -10.9719,6.64307 -101.5713,6.64307 -90.5994,0 -95.87145,-0.34481 -101.5713,-6.64307 z"
   id="path278"
   transform="scale(0.607625)" /><path
   style="fill:#ffffff;stroke-width:3.38983"
   d="m 478.72036,547.26541 c -8.7868,-6.15452 -9.85246,-19.03888 -2.20704,-26.6843 4.58688,-4.58688 18.40553,-5.32687 99.47462,-5.32687 86.90374,0 94.5794,0.47698 99.75786,6.19912 7.81215,8.63232 6.99744,19.56338 -1.92379,25.81205 -11.23157,7.8669 -183.87008,7.8669 -195.10165,0 z"
   id="path280"
   transform="scale(0.607625)" /><path
   style="fill:#ffffff;stroke-width:3.38983"
   d="m 475.25424,643.38983 c -5.24379,-5.24379 -5.24379,-20.51892 0,-25.76271 5.80593,-5.80593 196.22797,-5.80593 202.0339,0 5.24379,5.24379 5.24379,20.51892 0,25.76271 -5.80593,5.80593 -196.22797,5.80593 -202.0339,0 z"
   id="path282"
   transform="scale(0.607625)" /></svg>
